# xmcd CD database file generated by RipIT.
#
# Track frame offsets:
#	150
#	13399
#	35297
#	52738
#	70863
#	88637
#	108796
#	119698
#	136720
#
# Disc length: 1970 seconds
#
# Revision: 1
# Processed by: cddbd v1.5.1PL2 Copyright (c) Steve Scherf et al.
# Submitted via: RipIT 3.4 www.suwald.com/ripit/ripit.html at Tue Jan 3 13:33:34 CET 2006.
#
DISCID=6e07b009
DTITLE=Enya - Book Of Days
DYEAR=1900
DGENRE=New Age
TTITLE0=Book Of Days
TTITLE1=China Roses
TTITLE2=Evacuee
TTITLE3=Caribbean Blue
TTITLE4=Marble Halls
TTITLE5=Orinico Flow
TTITLE6=Riole Window
TTITLE7=Shepherd Moons
TTITLE8=Watermark
EXTD=
EXTT0=
EXTT1=
EXTT2=
EXTT3=
EXTT4=
EXTT5=
EXTT6=
EXTT7=
EXTT8=
PLAYORDER=
